<?xml version="1.0" encoding="utf-8"?>
<!-- Generator: Adobe Illustrator 18.0.0, SVG Export Plug-In . SVG Version: 6.00 Build 0)  -->
<!DOCTYPE svg PUBLIC "-//W3C//DTD SVG 1.1//EN" "http://www.w3.org/Graphics/SVG/1.1/DTD/svg11.dtd">
<svg version="1.1" id="Layer_1" xmlns="http://www.w3.org/2000/svg" xmlns:xlink="http://www.w3.org/1999/xlink" x="0px" y="0px"
	 viewBox="0 0 15 15" enable-background="new 0 0 15 15" xml:space="preserve">
<path fill="#999A9E" d="M8.9,7.5l5.8-5.8c0.4-0.4,0.4-1,0-1.4s-1-0.4-1.4,0L7.5,6.1L1.7,0.3c-0.4-0.4-1-0.4-1.4,0s-0.4,1,0,1.4
	l5.8,5.8l-5.8,5.8c-0.4,0.4-0.4,1,0,1.4C0.5,14.9,0.7,15,1,15s0.5-0.1,0.7-0.3l5.8-5.8l5.8,5.8c0.2,0.2,0.5,0.3,0.7,0.3
	s0.5-0.1,0.7-0.3c0.4-0.4,0.4-1,0-1.4L8.9,7.5z"/>
</svg>
